
<svg version="1.0" xmlns="http://www.w3.org/2000/svg"
 width="500" height="500" viewBox="0 0 500.000000 500.000000"
 preserveAspectRatio="xMidYMid meet">

<g transform="translate(0.000000,500.000000) scale(0.100000,-0.100000)"
fill="#000000" stroke="none">
<path d="M4143 3126 c-121 -38 -200 -135 -212 -260 l-6 -61 -42 -3 -43 -3 0
-84 0 -84 43 -3 42 -3 3 -252 2 -253 85 0 85 0 0 255 0 255 105 0 105 0 0 85
0 85 -105 0 -105 0 0 36 c0 86 68 134 190 134 l70 0 0 85 0 85 -87 -1 c-49 0
-107 -6 -130 -13z"/>
<path d="M3588 3080 c-74 -58 -55 -165 34 -199 67 -25 148 29 148 99 0 22 -5
50 -11 63 -25 54 -122 76 -171 37z"/>
<path d="M3267 3074 c-4 -4 -7 -74 -7 -155 l0 -148 -47 27 c-42 24 -59 27
-133 27 -73 -1 -93 -5 -143 -30 -70 -35 -130 -97 -165 -173 -23 -49 -27 -70
-27 -152 0 -82 4 -103 27 -152 37 -80 96 -140 169 -173 118 -52 221 -43 330
31 28 19 54 34 58 33 3 0 20 -19 36 -42 18 -25 39 -42 50 -42 20 0 20 10 20
475 l0 475 -80 3 c-45 1 -84 0 -88 -4z m-103 -442 c71 -41 107 -123 92 -207
-10 -50 -77 -122 -127 -135 -85 -23 -177 33 -204 123 -48 162 100 298 239 219z"/>
<path d="M2 2943 l3 -88 138 -3 137 -3 0 -364 0 -365 90 0 90 0 0 365 0 364
136 3 136 3 1 88 2 87 -368 0 -368 0 3 -87z"/>
<path d="M1554 2812 c-104 -36 -190 -126 -221 -231 -23 -82 -14 -200 23 -275
104 -212 390 -260 557 -93 l39 39 -62 63 -63 63 -36 -38 c-43 -45 -139 -77
-155 -52 -2 4 68 94 156 201 l160 193 -19 26 c-29 39 -108 90 -166 107 -67 20
-150 19 -213 -3z m145 -161 c10 -6 -10 -40 -85 -140 -109 -144 -117 -147 -117
-40 0 88 42 149 123 176 43 14 61 15 79 4z"/>
<path d="M2295 2809 c-54 -10 -92 -25 -128 -51 l-30 -21 -26 31 c-15 19 -35
32 -48 32 l-23 0 0 -340 0 -340 85 0 85 0 0 202 c0 183 2 206 20 244 48 98
187 98 233 1 14 -29 17 -69 17 -241 l0 -206 86 0 85 0 -3 238 c-3 235 -3 237
-30 288 -63 120 -197 188 -323 163z"/>
<path d="M812 2463 l3 -338 88 -3 87 -3 0 208 c0 189 2 211 20 240 30 50 66
63 170 63 l90 0 0 85 0 85 -98 0 c-106 0 -172 -15 -220 -49 -39 -28 -43 -27
-70 14 -15 25 -30 35 -47 35 l-25 0 2 -337z"/>
<path d="M3570 2460 l0 -340 85 0 85 0 0 340 0 340 -85 0 -85 0 0 -340z"/>
<path d="M4392 2563 c3 -224 4 -241 26 -284 63 -129 225 -202 343 -155 23 9
44 15 47 12 3 -3 -13 -23 -34 -45 -43 -43 -93 -61 -166 -61 l-48 0 0 -86 0
-86 88 4 c66 3 100 10 144 30 72 33 142 103 176 176 l27 57 3 338 3 337 -90 0
-90 0 -3 -220 -3 -220 -36 -36 c-47 -47 -107 -56 -157 -24 -56 35 -62 64 -62
295 l0 205 -86 0 -85 0 3 -237z"/>
</g>
</svg>
